<svg xmlns="http://www.w3.org/2000/svg" xmlns:xlink="http://www.w3.org/1999/xlink" viewBox="0 0 80 80" fill="#9B9898">
  <path d="M11 16C8.25 16 6 18.25 6 21L6 59C6 61.75 8.25 64 11 64L69 64C71.75 64 74 61.75 74 59L74 21C74 18.25 71.75 16 69 16 Z M 11 18L27 18L27 28L27.988281 29L29 28L29 18L69 18C70.667969 18 72 19.332031 72 21L72 40L41 40L39 42L72 42L72 59C72 60.667969 70.667969 62 69 62L29 62L29 47L28.011719 46L27 47L27 62L11 62C9.332031 62 8 60.667969 8 59L8 42L17 42L15 40L8 40L8 21C8 19.332031 9.332031 18 11 18 Z M 46 25C45.449219 25 45 25.449219 45 26C45 26.550781 45.449219 27 46 27C46.550781 27 47 26.550781 47 26C47 25.449219 46.550781 25 46 25 Z M 50 25C49.449219 25 49 25.449219 49 26C49 26.550781 49.449219 27 50 27C50.550781 27 51 26.550781 51 26C51 25.449219 50.550781 25 50 25 Z M 54 25C53.449219 25 53 25.449219 53 26C53 26.550781 53.449219 27 54 27C54.550781 27 55 26.550781 55 26C55 25.449219 54.550781 25 54 25 Z M 58 25C57.449219 25 57 25.449219 57 26C57 26.550781 57.449219 27 58 27C58.550781 27 59 26.550781 59 26C59 25.449219 58.550781 25 58 25 Z M 62 25C61.449219 25 61 25.449219 61 26C61 26.550781 61.449219 27 62 27C62.550781 27 63 26.550781 63 26C63 25.449219 62.550781 25 62 25 Z M 66 25C65.449219 25 65 25.449219 65 26C65 26.550781 65.449219 27 66 27C66.550781 27 67 26.550781 67 26C67 25.449219 66.550781 25 66 25 Z M 23 30C19.699219 30 17 32.699219 17 36L17 37L17.203125 37C17.699219 39.808594 20.050781 42 23 42L25.585938 42L19.292969 48.292969L20.707031 49.707031L28 42.414063L35.292969 49.707031L36.707031 48.292969L30.414063 42L33 42C35.949219 42 38.300781 39.808594 38.796875 37L39 37L39 36C39 32.699219 36.300781 30 33 30C30.917969 30 29.078125 31.074219 28 32.695313C26.921875 31.074219 25.082031 30 23 30 Z M 46 31C45.449219 31 45 31.449219 45 32C45 32.550781 45.449219 33 46 33C46.550781 33 47 32.550781 47 32C47 31.449219 46.550781 31 46 31 Z M 50 31C49.449219 31 49 31.449219 49 32C49 32.550781 49.449219 33 50 33C50.550781 33 51 32.550781 51 32C51 31.449219 50.550781 31 50 31 Z M 54 31C53.449219 31 53 31.449219 53 32C53 32.550781 53.449219 33 54 33C54.550781 33 55 32.550781 55 32C55 31.449219 54.550781 31 54 31 Z M 58 31C57.449219 31 57 31.449219 57 32C57 32.550781 57.449219 33 58 33C58.550781 33 59 32.550781 59 32C59 31.449219 58.550781 31 58 31 Z M 23 32C25.21875 32 27 33.78125 27 36L27 40L23 40C20.78125 40 19 38.21875 19 36C19 33.78125 20.78125 32 23 32 Z M 33 32C35.21875 32 37 33.78125 37 36C37 38.21875 35.21875 40 33 40L29 40L29 36C29 33.78125 30.78125 32 33 32 Z M 47 56C46.449219 56 46 56.449219 46 57C46 57.550781 46.449219 58 47 58C47.550781 58 48 57.550781 48 57C48 56.449219 47.550781 56 47 56 Z M 51 56C50.449219 56 50 56.449219 50 57C50 57.550781 50.449219 58 51 58C51.550781 58 52 57.550781 52 57C52 56.449219 51.550781 56 51 56 Z M 55 56C54.449219 56 54 56.449219 54 57C54 57.550781 54.449219 58 55 58C55.550781 58 56 57.550781 56 57C56 56.449219 55.550781 56 55 56 Z M 59 56C58.449219 56 58 56.449219 58 57C58 57.550781 58.449219 58 59 58C59.550781 58 60 57.550781 60 57C60 56.449219 59.550781 56 59 56 Z M 63 56C62.449219 56 62 56.449219 62 57C62 57.550781 62.449219 58 63 58C63.550781 58 64 57.550781 64 57C64 56.449219 63.550781 56 63 56 Z M 67 56C66.449219 56 66 56.449219 66 57C66 57.550781 66.449219 58 67 58C67.550781 58 68 57.550781 68 57C68 56.449219 67.550781 56 67 56Z" fill="#9B9898" />
</svg>