<svg xmlns="http://www.w3.org/2000/svg" xmlns:xlink="http://www.w3.org/1999/xlink" viewBox="0 0 32 32" fill="#9B9898">
  <path d="M5 6C3.355469 6 2 7.355469 2 9L2 23C2 24.644531 3.355469 26 5 26L27 26C28.644531 26 30 24.644531 30 23L30 9C30 7.355469 28.644531 6 27 6 Z M 5 8L11 8L11 11L13 11L13 8L27 8C27.566406 8 28 8.433594 28 9L28 15L20 15L20 17L28 17L28 23C28 23.566406 27.566406 24 27 24L13 24L13 19L11 19L11 24L5 24C4.433594 24 4 23.566406 4 23L4 9C4 8.433594 4.433594 8 5 8 Z M 8 11C6.355469 11 5 12.355469 5 14C5 15.644531 6.355469 17 8 17L8.480469 17C7.808594 17.703125 7.234375 18.621094 7.015625 19.820313L8.984375 20.179688C9.335938 18.25 11.320313 17.335938 11.984375 17.078125C12.640625 17.355469 14.671875 18.339844 15.015625 20.1875L16.984375 19.8125C16.757813 18.625 16.171875 17.703125 15.484375 17L16 17C17.644531 17 19 15.644531 19 14C19 12.355469 17.644531 11 16 11C14.25 11 13.070313 12.316406 12.292969 13.425781C12.183594 13.582031 12.09375 13.726563 12 13.878906C11.90625 13.726563 11.816406 13.582031 11.707031 13.425781C10.929688 12.316406 9.75 11 8 11 Z M 8 13C8.625 13 9.445313 13.683594 10.074219 14.574219C10.21875 14.785156 10.191406 14.800781 10.308594 15L8 15C7.433594 15 7 14.566406 7 14C7 13.433594 7.433594 13 8 13 Z M 16 13C16.566406 13 17 13.433594 17 14C17 14.566406 16.566406 15 16 15L13.691406 15C13.808594 14.800781 13.78125 14.785156 13.925781 14.574219C14.554688 13.683594 15.375 13 16 13Z" fill="#9B9898" />
</svg>