<svg xmlns="http://www.w3.org/2000/svg" xmlns:xlink="http://www.w3.org/1999/xlink" viewBox="0 0 100 100" fill="#5B5B5B">
  <path d="M35.984375 21.986328 A 1.0001 1.0001 0 0 0 35.839844 22L19 22C14.041484 22 10 26.041484 10 31L10 50.832031 A 1.0001 1.0001 0 0 0 10 51.158203L10 69C10 73.958516 14.041484 78 19 78L35.832031 78 A 1.0001 1.0001 0 0 0 36.158203 78L81 78C85.958516 78 90 73.958516 90 69L90 51.167969 A 1.0001 1.0001 0 0 0 90 50.841797L90 31C90 26.041484 85.958516 22 81 22L36.154297 22 A 1.0001 1.0001 0 0 0 35.984375 21.986328 z M 19 24L35 24L35 35 A 1.0001 1.0001 0 1 0 37 35L37 24L81 24C84.877484 24 88 27.122516 88 31L88 50L52 50 A 1.0001 1.0001 0 1 0 52 52L88 52L88 69C88 72.877484 84.877484 76 81 76L37 76L37 58 A 1.0001 1.0001 0 0 0 35.984375 56.986328 A 1.0001 1.0001 0 0 0 35 58L35 76L19 76C15.122516 76 12 72.877484 12 69L12 52L20 52 A 1.0001 1.0001 0 1 0 20 50L12 50L12 31C12 27.122516 15.122516 24 19 24 z M 56.5 34 A 0.50005 0.50005 0 1 0 56.5 35L69.5 35 A 0.50005 0.50005 0 1 0 69.5 34L56.5 34 z M 72.5 34 A 0.50005 0.50005 0 1 0 72.5 35L81.5 35 A 0.50005 0.50005 0 1 0 81.5 34L72.5 34 z M 30 38C26.146302 38 23 41.146302 23 45C23 48.853698 26.146302 52 30 52L33.585938 52L26.292969 59.292969 A 1.0001 1.0001 0 1 0 27.707031 60.707031L36 52.414062L44.292969 60.707031 A 1.0001 1.0001 0 1 0 45.707031 59.292969L38.414062 52L42 52C45.853698 52 49 48.853698 49 45C49 41.146302 45.853698 38 42 38C39.396345 38 37.205682 39.498925 36 41.619141C34.794318 39.498925 32.603655 38 30 38 z M 56.5 38 A 0.50005 0.50005 0 1 0 56.5 39L75.5 39 A 0.50005 0.50005 0 1 0 75.5 38L56.5 38 z M 30 40C32.772302 40 35 42.227698 35 45L35 50L30 50C27.227698 50 25 47.772302 25 45C25 42.227698 27.227698 40 30 40 z M 42 40C44.772302 40 47 42.227698 47 45C47 47.772302 44.772302 50 42 50L37 50L37 45C37 42.227698 39.227698 40 42 40 z M 57 67 A 1 1 0 0 0 57 69 A 1 1 0 0 0 57 67 z M 61 67 A 1 1 0 0 0 61 69 A 1 1 0 0 0 61 67 z M 65 67 A 1 1 0 0 0 65 69 A 1 1 0 0 0 65 67 z M 69 67 A 1 1 0 0 0 69 69 A 1 1 0 0 0 69 67 z M 73 67 A 1 1 0 0 0 73 69 A 1 1 0 0 0 73 67 z M 77 67 A 1 1 0 0 0 77 69 A 1 1 0 0 0 77 67 z M 81 67 A 1 1 0 0 0 81 69 A 1 1 0 0 0 81 67 z" fill="#5B5B5B" />
</svg>